<svg width="34" height="34" viewBox="0 0 34 34" fill="none" xmlns="http://www.w3.org/2000/svg">
<circle cx="17" cy="17" r="17" fill="#243A5E"/>
<path fill-rule="evenodd" clip-rule="evenodd" d="M12.6864 11.5512C12.6864 9.16892 14.6177 7.23767 17 7.23767C19.3823 7.23767 21.3136 9.16892 21.3136 11.5512C21.3136 13.9336 19.3823 15.8648 17 15.8648C14.6177 15.8648 12.6864 13.9336 12.6864 11.5512ZM17 8.59985C15.37 8.59985 14.0486 9.92123 14.0486 11.5512C14.0486 13.1812 15.37 14.5026 17 14.5026C18.63 14.5026 19.9514 13.1812 19.9514 11.5512C19.9514 9.92123 18.63 8.59985 17 8.59985Z" fill="#F39C34"/>
<path d="M22.4487 18.7405C22.8249 18.7405 23.1298 19.0454 23.1298 19.4216V19.9513H23.6594C24.0356 19.9513 24.3405 20.2563 24.3405 20.6324C24.3405 21.0086 24.0356 21.3135 23.6594 21.3135H23.1298V21.8433C23.1298 22.2194 22.8249 22.5243 22.4487 22.5243C22.0726 22.5243 21.7676 22.2194 21.7676 21.8433V21.3135H21.2377C20.8616 21.3135 20.5567 21.0086 20.5567 20.6324C20.5567 20.2563 20.8616 19.9513 21.2377 19.9513H21.7676V19.4216C21.7676 19.0454 22.0726 18.7405 22.4487 18.7405Z" fill="#F39C34"/>
<path fill-rule="evenodd" clip-rule="evenodd" d="M19.5197 17.4657C18.7272 17.3106 17.8795 17.227 17 17.227C14.899 17.227 12.9633 17.7046 11.529 18.5114C10.116 19.3062 9.05395 20.5108 9.05395 21.9946L9.05389 22.0872C9.05287 23.1423 9.05158 24.4665 10.2131 25.4124C10.7847 25.8779 11.5844 26.2089 12.6648 26.4276C13.7483 26.6469 15.1604 26.7622 17 26.7622C19.6046 26.7622 21.368 26.5317 22.5573 26.0889C23.6279 25.6904 24.2625 25.1064 24.6013 24.3714C25.8929 23.6261 26.7623 22.2308 26.7623 20.6324C26.7623 18.2501 24.831 16.3189 22.4487 16.3189C21.318 16.3189 20.2889 16.7539 19.5197 17.4657ZM12.1968 19.6986C10.9804 20.3828 10.4161 21.2215 10.4161 21.9946C10.4161 23.1823 10.4527 23.8508 11.0732 24.3561C11.4097 24.6301 11.9722 24.8976 12.9351 25.0925C13.8949 25.2867 15.2072 25.4001 17 25.4001C19.3411 25.4001 20.8505 25.2063 21.8229 24.9009C19.7371 24.5978 18.1352 22.8022 18.1352 20.6324C18.1352 19.9351 18.3006 19.2765 18.5944 18.6936C18.0843 18.6255 17.5504 18.5892 17 18.5892C15.0887 18.5892 13.3919 19.0264 12.1968 19.6986ZM19.4973 20.6324C19.4973 19.0024 20.8187 17.681 22.4487 17.681C24.0787 17.681 25.4001 19.0024 25.4001 20.6324C25.4001 22.2624 24.0787 23.5838 22.4487 23.5838C20.8187 23.5838 19.4973 22.2624 19.4973 20.6324Z" fill="#F39C34"/>
</svg>
