<svg width="45" height="45" viewBox="0 0 45 45" fill="none" xmlns="http://www.w3.org/2000/svg">
<path d="M17.7124 28.8703C17.0885 28.4078 16.2078 28.5387 15.7453 29.1626C15.2828 29.7865 15.4137 30.6673 16.0376 31.1297C17.8609 32.4812 20.0907 33.2813 22.5 33.2813C24.9093 33.2813 27.1391 32.4812 28.9624 31.1297C29.5863 30.6673 29.7172 29.7865 29.2547 29.1626C28.7923 28.5387 27.9115 28.4078 27.2876 28.8703C25.922 29.8825 24.2736 30.4688 22.5 30.4688C20.7264 30.4688 19.078 29.8825 17.7124 28.8703Z" fill="#7FBF4D"/>
<path fill-rule="evenodd" clip-rule="evenodd" d="M22.5 2.34375C21.1723 2.34375 19.966 2.72404 18.6573 3.36045C17.3922 3.97565 15.9308 4.88267 14.1054 6.01561L10.2305 8.42043C8.50329 9.49239 7.12021 10.3508 6.05419 11.1671C4.95028 12.0125 4.1024 12.8735 3.48996 13.9924C2.87879 15.109 2.60356 16.297 2.47161 17.7013C2.34372 19.0623 2.34374 20.7265 2.34375 22.8136V25.8372C2.34372 29.407 2.3437 32.2248 2.63007 34.428C2.92382 36.6881 3.54106 38.5126 4.93567 39.9552C6.33672 41.4044 8.11961 42.0519 10.3268 42.3588C12.4659 42.6563 15.1979 42.6563 18.641 42.6562H26.3589C29.802 42.6563 32.5341 42.6563 34.6732 42.3588C36.8804 42.0519 38.6633 41.4044 40.0643 39.9552C41.4589 38.5126 42.0762 36.6881 42.3699 34.428C42.6563 32.2248 42.6563 29.407 42.6562 25.8372V22.8135C42.6563 20.7265 42.6563 19.0622 42.5284 17.7013C42.3964 16.297 42.1212 15.109 41.51 13.9924C40.8976 12.8735 40.0497 12.0125 38.9458 11.1671C37.8798 10.3508 36.4968 9.49241 34.7695 8.42046L30.8946 6.01559C29.0692 4.88266 27.6078 3.97564 26.3427 3.36045C25.034 2.72404 23.8277 2.34375 22.5 2.34375ZM15.5241 8.44522C17.4287 7.2632 18.7678 6.43413 19.8873 5.88974C20.9779 5.35936 21.7503 5.15625 22.5 5.15625C23.2497 5.15625 24.0221 5.35936 25.1127 5.88974C26.2322 6.43412 27.5713 7.2632 29.4759 8.44522L33.2259 10.7726C35.0274 11.8907 36.2923 12.6775 37.2358 13.4001C38.1538 14.1031 38.6819 14.6832 39.043 15.3428C39.4053 16.0048 39.6168 16.7787 39.7282 17.9644C39.8423 19.1786 39.8438 20.7109 39.8438 22.8823V25.7343C39.8438 29.4298 39.841 32.0647 39.5809 34.0655C39.3255 36.0306 38.8444 37.1707 38.0423 38.0003C37.2466 38.8234 36.1634 39.312 34.2858 39.5731C32.3628 39.8406 29.8266 39.8438 26.25 39.8438H18.75C15.1734 39.8438 12.6372 39.8406 10.7142 39.5731C8.83661 39.312 7.75338 38.8234 6.95773 38.0003C6.15565 37.1707 5.67453 36.0306 5.41911 34.0655C5.15905 32.0647 5.15625 29.4298 5.15625 25.7343V22.8823C5.15625 20.7109 5.15768 19.1786 5.27177 17.9644C5.38319 16.7787 5.59471 16.0048 5.95705 15.3428C6.3181 14.6832 6.84624 14.1031 7.76422 13.4001C8.70769 12.6775 9.97255 11.8907 11.7741 10.7726L15.5241 8.44522Z" fill="#7FBF4D"/>
</svg>
