<svg width="37" height="37" viewBox="0 0 37 37" fill="none" xmlns="http://www.w3.org/2000/svg">
<path d="M8.43241 19.3176C7.98086 18.866 7.98086 18.1339 8.43241 17.6824L11.5157 14.5991C11.9673 14.1475 12.6994 14.1475 13.1509 14.5991C13.6025 15.0506 13.6025 15.7827 13.1509 16.2342L12.0414 17.3437L23.125 17.3437C23.7636 17.3437 24.2813 17.8614 24.2813 18.5C24.2813 19.1386 23.7636 19.6562 23.125 19.6562L12.0414 19.6562L13.1509 20.7657C13.6025 21.2173 13.6025 21.9494 13.1509 22.4009C12.6994 22.8525 11.9673 22.8525 11.5157 22.4009L8.43241 19.3176Z" fill="#CDE8B5"/>
<path fill-rule="evenodd" clip-rule="evenodd" d="M21.4991 1.92706H23.2099C25.3183 1.92703 27.0177 1.92701 28.3543 2.1067C29.7419 2.29327 30.9103 2.6924 31.8383 3.62035C32.7662 4.54831 33.1654 5.7167 33.3519 7.10437C33.5316 8.44094 33.5316 10.1404 33.5316 12.2487V24.7512C33.5316 26.8596 33.5316 28.559 33.3519 29.8956C33.1654 31.2833 32.7662 32.4517 31.8383 33.3796C30.9103 34.3076 29.7419 34.7067 28.3543 34.8933C27.0177 35.073 25.3183 35.0729 23.2099 35.0729H21.4991C19.3907 35.0729 17.6913 35.073 16.3547 34.8933C14.967 34.7067 13.7987 34.3076 12.8707 33.3796C12.2557 32.7646 11.8719 32.0426 11.6289 31.2185C10.1622 31.2165 8.94022 31.2004 7.9502 31.0673C6.77244 30.909 5.75134 30.5663 4.93627 29.7512C4.1212 28.9361 3.77851 27.915 3.62017 26.7373C3.46868 25.6105 3.46871 24.1834 3.46875 22.437V14.563C3.46871 12.8166 3.46868 11.3894 3.62017 10.2627C3.77851 9.08492 4.1212 8.06382 4.93627 7.24875C5.75134 6.43368 6.77244 6.091 7.9502 5.93265C8.94022 5.79955 10.1622 5.78342 11.6289 5.78149C11.8719 4.95739 12.2557 4.23538 12.8707 3.62035C13.7987 2.6924 14.967 2.29327 16.3547 2.1067C17.6913 1.92701 19.3907 1.92703 21.4991 1.92706ZM11.1801 26.2148C11.1856 27.2084 11.202 28.1034 11.2585 28.9048C9.97205 28.8998 9.01566 28.8773 8.25833 28.7754C7.337 28.6516 6.88524 28.4298 6.57145 28.116C6.25766 27.8022 6.03592 27.3505 5.91205 26.4292C5.78371 25.4746 5.78125 24.2037 5.78125 22.3542V14.6458C5.78125 12.7963 5.78371 11.5254 5.91205 10.5708C6.03592 9.64949 6.25766 9.19772 6.57145 8.88393C6.88524 8.57014 7.337 8.3484 8.25833 8.22453C9.01566 8.12271 9.97205 8.10012 11.2586 8.09514C11.202 8.89653 11.1856 9.79155 11.1801 10.7852C11.1766 11.4238 11.6913 11.9443 12.3299 11.9479C12.9685 11.9514 13.489 11.4367 13.4926 10.7981C13.502 9.11228 13.5457 7.91736 13.7123 7.01047C13.8728 6.13664 14.1306 5.63086 14.5059 5.25554C14.9326 4.82886 15.5316 4.55067 16.6629 4.39858C17.8274 4.24202 19.3707 4.23957 21.5837 4.23957H23.1253C25.3383 4.23957 26.8816 4.24202 28.0461 4.39858C29.1774 4.55067 29.7764 4.82886 30.2031 5.25554C30.6298 5.68221 30.908 6.28126 31.0601 7.4125C31.2166 8.577 31.2191 10.1204 31.2191 12.3333V24.6667C31.2191 26.8796 31.2166 28.423 31.0601 29.5875C30.908 30.7187 30.6298 31.3178 30.2031 31.7444C29.7764 32.1711 29.1774 32.4493 28.0461 32.6014C26.8816 32.7579 25.3383 32.7604 23.1253 32.7604H21.5837C19.3707 32.7604 17.8273 32.7579 16.6629 32.6014C15.5316 32.4493 14.9326 32.1711 14.5059 31.7444C14.1306 31.3691 13.8728 30.8633 13.7123 29.9895C13.5457 29.0826 13.502 27.8877 13.4926 26.2019C13.489 25.5633 12.9685 25.0485 12.3299 25.0521C11.6913 25.0556 11.1766 25.5762 11.1801 26.2148Z" fill="#CDE8B5"/>
</svg>
