<svg width="23" height="29" viewBox="0 0 23 29" fill="none" xmlns="http://www.w3.org/2000/svg">
<path d="M0 24.0833V21.25H2.83333V11.3333C2.83333 9.37361 3.42361 7.63819 4.60417 6.12708C5.78472 4.59236 7.31945 3.58889 9.20833 3.11667V2.125C9.20833 1.53472 9.40903 1.03889 9.81042 0.637498C10.2354 0.212499 10.7431 0 11.3333 0C11.9236 0 12.4194 0.212499 12.8208 0.637498C13.2458 1.03889 13.4583 1.53472 13.4583 2.125V3.11667C15.3472 3.58889 16.8819 4.59236 18.0625 6.12708C19.2431 7.63819 19.8333 9.37361 19.8333 11.3333V21.25H22.6667V24.0833H0ZM11.3333 28.3333C10.5542 28.3333 9.88125 28.0618 9.31458 27.5188C8.77153 26.9521 8.5 26.2792 8.5 25.5H14.1667C14.1667 26.2792 13.8833 26.9521 13.3167 27.5188C12.7736 28.0618 12.1125 28.3333 11.3333 28.3333ZM5.66667 21.25H17V11.3333C17 9.775 16.4451 8.44097 15.3354 7.33125C14.2257 6.22153 12.8917 5.66667 11.3333 5.66667C9.775 5.66667 8.44097 6.22153 7.33125 7.33125C6.22153 8.44097 5.66667 9.775 5.66667 11.3333V21.25Z" fill="#243A5E"/>
</svg>
