<svg width="45" height="45" viewBox="0 0 45 45" fill="none" xmlns="http://www.w3.org/2000/svg">
<path fill-rule="evenodd" clip-rule="evenodd" d="M13.7008 2.3437C12.199 2.3432 11.1684 2.34285 10.2525 2.59394C8.32951 3.12111 6.72075 4.43998 5.82667 6.22227C5.40084 7.07115 5.19908 8.08172 4.90505 9.55447L3.74329 15.3635C3.30903 17.5348 3.90406 19.6346 5.1563 21.209L5.1563 26.3558C5.15627 29.8016 5.15625 32.5309 5.44343 34.6669C5.73898 36.8652 6.3617 38.6445 7.76488 40.0477C9.16806 41.4509 10.9473 42.0736 13.1456 42.3691C15.2817 42.6563 18.011 42.6563 21.4568 42.6562H23.5433C26.9891 42.6563 29.7184 42.6563 31.8545 42.3691C34.0528 42.0736 35.832 41.4509 37.2352 40.0477C38.6384 38.6445 39.2611 36.8652 39.5567 34.6669C39.8439 32.5309 39.8438 29.8016 39.8438 26.3559V21.2091C41.0961 19.6346 41.6911 17.5348 41.2568 15.3635L40.0951 9.55446C39.8011 8.08172 39.5993 7.07115 39.1735 6.22227C38.2794 4.43998 36.6706 3.12111 34.7476 2.59394C33.8317 2.34285 32.8012 2.3432 31.2994 2.3437H13.7008ZM34.2534 23.9062C35.2451 23.9062 36.1822 23.7066 37.0313 23.3482V26.25C37.0313 29.8253 37.0283 32.3653 36.7693 34.2922C36.5156 36.1786 36.04 37.2654 35.2465 38.0589C34.453 38.8524 33.3661 39.3281 31.4797 39.5817C30.6444 39.694 29.6939 39.7582 28.5938 39.7949V34.6271C28.5938 33.8025 28.5939 33.0912 28.541 32.5075C28.485 31.8903 28.3612 31.2791 28.0286 30.7031C27.6583 30.0618 27.1258 29.5292 26.4844 29.159C25.9084 28.8264 25.2972 28.7025 24.68 28.6466C24.0964 28.5937 23.3851 28.5937 22.5605 28.5937H22.4396C21.615 28.5937 20.9038 28.5937 20.3201 28.6466C19.7029 28.7025 19.0917 28.8264 18.5157 29.159C17.8743 29.5292 17.3418 30.0618 16.9715 30.7031C16.6389 31.2791 16.5151 31.8903 16.4591 32.5075C16.4062 33.0912 16.4063 33.8025 16.4063 34.6271L16.4063 39.7949C15.3062 39.7582 14.3557 39.694 13.5204 39.5817C11.634 39.3281 10.5471 38.8524 9.75362 38.0589C8.9601 37.2654 8.48447 36.1786 8.23085 34.2922C7.97179 32.3653 7.9688 29.8253 7.9688 26.25V23.3482C8.81795 23.7066 9.75505 23.9062 10.7467 23.9062C13.1353 23.9062 15.2709 22.728 16.5714 20.8984C17.9017 22.7137 20.0497 23.9062 22.4997 23.9062C24.9499 23.9062 27.098 22.7134 28.4283 20.8978C29.7288 22.7278 31.8646 23.9062 34.2534 23.9062ZM19.2188 39.84C19.947 39.8436 20.7265 39.8438 21.5625 39.8438H23.4375C24.2736 39.8438 25.0531 39.8436 25.7813 39.84V34.6875C25.7813 33.7854 25.78 33.2029 25.7399 32.7614C25.7017 32.3393 25.6371 32.186 25.5929 32.1094C25.4695 31.8956 25.292 31.7181 25.0782 31.5947C25.0016 31.5504 24.8483 31.4859 24.4262 31.4476C23.9847 31.4076 23.4021 31.4062 22.5001 31.4062C21.598 31.4062 21.0154 31.4076 20.5739 31.4476C20.1518 31.4859 19.9985 31.5504 19.9219 31.5947C19.7081 31.7181 19.5306 31.8956 19.4072 32.1094C19.363 32.186 19.2984 32.3392 19.2602 32.7614C19.2201 33.2029 19.2188 33.7854 19.2188 34.6875V39.84ZM16.2583 5.15625H13.9083C12.1187 5.15625 11.4988 5.16854 10.9961 5.30636C9.8423 5.62267 8.87704 6.41399 8.3406 7.48336C8.10686 7.94931 7.97325 8.55467 7.62228 10.3095L6.50118 15.915C5.96535 18.5942 8.01452 21.0937 10.7467 21.0937C12.971 21.0937 14.8335 19.4083 15.0548 17.1949L15.1834 15.9089L15.1909 15.8301L16.2583 5.15625ZM17.9837 16.1719L19.0852 5.15625H25.9145L27.0099 16.11C27.2767 18.7783 25.1813 21.0937 22.4997 21.0937C19.8388 21.0937 17.7551 18.814 17.9837 16.1719ZM34.004 5.30636C33.5013 5.16854 32.8815 5.15625 31.0919 5.15625H28.7414L29.9453 17.1949C30.1666 19.4083 32.0291 21.0937 34.2534 21.0937C36.9856 21.0937 39.0348 18.5942 38.499 15.915L37.3779 10.3095C37.0269 8.55467 36.8933 7.94931 36.6595 7.48336C36.1231 6.41399 35.1578 5.62267 34.004 5.30636Z" fill="#7FBF4D"/>
</svg>
