<svg width="45" height="45" viewBox="0 0 45 45" fill="none" xmlns="http://www.w3.org/2000/svg">
<path fill-rule="evenodd" clip-rule="evenodd" d="M13.7007 2.3437C12.1989 2.3432 11.1684 2.34285 10.2525 2.59394C8.32946 3.12111 6.7207 4.43998 5.82662 6.22227C5.40079 7.07115 5.19903 8.08172 4.90499 9.55447L3.74324 15.3635C3.30898 17.5348 3.90401 19.6346 5.15625 21.209L5.15625 26.3558C5.15622 29.8016 5.1562 32.5309 5.44338 34.6669C5.73893 36.8652 6.36165 38.6445 7.76483 40.0477C9.16801 41.4509 10.9473 42.0736 13.1456 42.3691C15.2816 42.6563 18.0109 42.6563 21.4567 42.6562H23.5433C26.9891 42.6563 29.7184 42.6563 31.8544 42.3691C34.0527 42.0736 35.832 41.4509 37.2352 40.0477C38.6384 38.6445 39.2611 36.8652 39.5566 34.6669C39.8438 32.5309 39.8438 29.8016 39.8438 26.3559V21.2091C41.096 19.6346 41.6911 17.5348 41.2568 15.3635L40.095 9.55446C39.801 8.08172 39.5992 7.07115 39.1734 6.22227C38.2793 4.43998 36.6706 3.12111 34.7475 2.59394C33.8316 2.34285 32.8011 2.3432 31.2993 2.3437H13.7007ZM34.2534 23.9062C35.245 23.9062 36.1821 23.7066 37.0313 23.3482V26.25C37.0313 29.8253 37.0283 32.3653 36.7692 34.2922C36.5156 36.1786 36.0399 37.2654 35.2464 38.0589C34.4529 38.8524 33.3661 39.3281 31.4797 39.5817C30.6444 39.694 29.6939 39.7582 28.5938 39.7949V34.6271C28.5938 33.8025 28.5938 33.0912 28.5409 32.5075C28.485 31.8903 28.3611 31.2791 28.0285 30.7031C27.6583 30.0618 27.1257 29.5292 26.4844 29.159C25.9083 28.8264 25.2972 28.7025 24.68 28.6466C24.0963 28.5937 23.385 28.5937 22.5604 28.5937H22.4396C21.615 28.5937 20.9037 28.5937 20.32 28.6466C19.7028 28.7025 19.0917 28.8264 18.5156 29.159C17.8743 29.5292 17.3417 30.0618 16.9715 30.7031C16.6389 31.2791 16.515 31.8903 16.4591 32.5075C16.4062 33.0912 16.4062 33.8025 16.4062 34.6271L16.4062 39.7949C15.3061 39.7582 14.3556 39.694 13.5203 39.5817C11.6339 39.3281 10.5471 38.8524 9.75357 38.0589C8.96005 37.2654 8.48442 36.1786 8.2308 34.2922C7.97174 32.3653 7.96875 29.8253 7.96875 26.25V23.3482C8.81789 23.7066 9.755 23.9062 10.7467 23.9062C13.1352 23.9062 15.2709 22.728 16.5714 20.8984C17.9017 22.7137 20.0497 23.9062 22.4996 23.9062C24.9498 23.9062 27.098 22.7134 28.4283 20.8978C29.7288 22.7278 31.8645 23.9062 34.2534 23.9062ZM19.2188 39.84C19.947 39.8436 20.7264 39.8438 21.5625 39.8438H23.4375C24.2736 39.8438 25.053 39.8436 25.7812 39.84V34.6875C25.7812 33.7854 25.7799 33.2029 25.7399 32.7614C25.7016 32.3393 25.6371 32.186 25.5928 32.1094C25.4694 31.8956 25.2919 31.7181 25.0781 31.5947C25.0015 31.5504 24.8482 31.4859 24.4261 31.4476C23.9846 31.4076 23.4021 31.4062 22.5 31.4062C21.5979 31.4062 21.0154 31.4076 20.5739 31.4476C20.1518 31.4859 19.9985 31.5504 19.9219 31.5947C19.7081 31.7181 19.5306 31.8956 19.4072 32.1094C19.3629 32.186 19.2984 32.3392 19.2601 32.7614C19.2201 33.2029 19.2188 33.7854 19.2188 34.6875V39.84ZM16.2582 5.15625H13.9082C12.1186 5.15625 11.4988 5.16854 10.9961 5.30636C9.84225 5.62267 8.87699 6.41399 8.34055 7.48336C8.10681 7.94931 7.9732 8.55467 7.62223 10.3095L6.50113 15.915C5.9653 18.5942 8.01447 21.0937 10.7467 21.0937C12.971 21.0937 14.8334 19.4083 15.0548 17.1949L15.1834 15.9089L15.1908 15.8301L16.2582 5.15625ZM17.9836 16.1719L19.0852 5.15625H25.9145L27.0099 16.11C27.2767 18.7783 25.1813 21.0937 22.4996 21.0937C19.8387 21.0937 17.755 18.814 17.9836 16.1719ZM34.004 5.30636C33.5012 5.16854 32.8814 5.15625 31.0918 5.15625H28.7414L29.9453 17.1949C30.1666 19.4083 32.029 21.0937 34.2534 21.0937C36.9856 21.0937 39.0347 18.5942 38.4989 15.915L37.3778 10.3095C37.0268 8.55467 36.8932 7.94931 36.6595 7.48336C36.123 6.41399 35.1578 5.62267 34.004 5.30636Z" fill="#F39C34"/>
</svg>
