<svg width="45" height="45" viewBox="0 0 45 45" fill="none" xmlns="http://www.w3.org/2000/svg">
<path fill-rule="evenodd" clip-rule="evenodd" d="M16.875 11.7188C14.0273 11.7188 11.7188 14.0273 11.7188 16.875C11.7188 19.7227 14.0273 22.0313 16.875 22.0313C19.7227 22.0313 22.0313 19.7227 22.0313 16.875C22.0313 14.0273 19.7227 11.7188 16.875 11.7188ZM14.5313 16.875C14.5313 15.5806 15.5806 14.5313 16.875 14.5313C18.1694 14.5313 19.2188 15.5806 19.2188 16.875C19.2188 18.1694 18.1694 19.2188 16.875 19.2188C15.5806 19.2188 14.5313 18.1694 14.5313 16.875Z" fill="#F39C34"/>
<path fill-rule="evenodd" clip-rule="evenodd" d="M16.875 22.9688C14.633 22.9688 12.5336 23.4201 10.9428 24.2156C9.43608 24.9689 7.96875 26.2699 7.96875 28.125L7.96851 28.2421C7.96564 29.1991 7.96079 30.8104 9.48793 31.9158C10.1966 32.4288 11.1317 32.7559 12.29 32.9643C13.4591 33.1747 14.9573 33.2813 16.875 33.2813C18.7927 33.2813 20.2909 33.1747 21.46 32.9643C22.6183 32.7559 23.5534 32.4288 24.2621 31.9158C25.7892 30.8104 25.7844 29.1991 25.7815 28.2421L25.7813 28.125C25.7813 26.2699 24.3139 24.9689 22.8072 24.2156C21.2164 23.4201 19.117 22.9688 16.875 22.9688ZM10.7813 28.125C10.7813 27.9091 10.9929 27.335 12.2006 26.7311C13.3242 26.1693 14.9749 25.7813 16.875 25.7813C18.7751 25.7813 20.4258 26.1693 21.5494 26.7311C22.7572 27.335 22.9688 27.9091 22.9688 28.125C22.9688 29.2584 22.8966 29.4322 22.6129 29.6375C22.3841 29.8032 21.9129 30.0252 20.9619 30.1963C20.0216 30.3655 18.7073 30.4688 16.875 30.4688C15.0427 30.4688 13.7284 30.3655 12.7881 30.1963C11.8371 30.0252 11.3659 29.8032 11.1371 29.6375C10.8534 29.4322 10.7813 29.2584 10.7813 28.125Z" fill="#F39C34"/>
<path d="M35.625 23.9063C36.4016 23.9063 37.0312 23.2767 37.0312 22.5C37.0312 21.7234 36.4016 21.0938 35.625 21.0938H28.125C27.3484 21.0938 26.7188 21.7234 26.7188 22.5C26.7188 23.2767 27.3484 23.9063 28.125 23.9063H35.625Z" fill="#F39C34"/>
<path d="M37.0312 16.875C37.0312 17.6517 36.4016 18.2813 35.625 18.2813H26.25C25.4734 18.2813 24.8438 17.6517 24.8438 16.875C24.8438 16.0984 25.4734 15.4688 26.25 15.4688H35.625C36.4016 15.4688 37.0312 16.0984 37.0312 16.875Z" fill="#F39C34"/>
<path d="M35.625 29.5313C36.4016 29.5313 37.0312 28.9017 37.0312 28.125C37.0312 27.3484 36.4016 26.7188 35.625 26.7188H30C29.2234 26.7188 28.5938 27.3484 28.5938 28.125C28.5938 28.9017 29.2234 29.5313 30 29.5313H35.625Z" fill="#F39C34"/>
<path fill-rule="evenodd" clip-rule="evenodd" d="M18.6442 6.09375H26.3558C29.8016 6.09372 32.5309 6.0937 34.6669 6.38088C36.8652 6.67643 38.6445 7.29915 40.0477 8.70233C41.4509 10.1055 42.0736 11.8848 42.3691 14.0831C42.6563 16.2191 42.6563 18.9484 42.6562 22.3941V22.6058C42.6563 26.0515 42.6563 28.7809 42.3691 30.9169C42.0736 33.1152 41.4509 34.8945 40.0477 36.2977C38.6445 37.7009 36.8652 38.3236 34.6669 38.6191C32.5309 38.9063 29.8016 38.9063 26.3559 38.9062H18.6442C15.1985 38.9063 12.4691 38.9063 10.3331 38.6191C8.13479 38.3236 6.35551 37.7009 4.95233 36.2977C3.54915 34.8945 2.92643 33.1152 2.63088 30.9169C2.3437 28.7809 2.34372 26.0516 2.34375 22.6058V22.3942C2.34372 18.9484 2.3437 16.2191 2.63088 14.0831C2.92643 11.8848 3.54915 10.1055 4.95233 8.70233C6.35551 7.29915 8.13479 6.67643 10.3331 6.38088C12.4691 6.0937 15.1984 6.09372 18.6442 6.09375ZM10.7078 9.1683C8.82143 9.42192 7.73459 9.89755 6.94107 10.6911C6.14755 11.4846 5.67192 12.5714 5.4183 14.4578C5.15924 16.3847 5.15625 18.9247 5.15625 22.5C5.15625 26.0753 5.15924 28.6153 5.4183 30.5422C5.67192 32.4286 6.14755 33.5154 6.94107 34.3089C7.73459 35.1025 8.82143 35.5781 10.7078 35.8317C12.6347 36.0908 15.1747 36.0938 18.75 36.0938H26.25C29.8253 36.0938 32.3653 36.0908 34.2922 35.8317C36.1786 35.5781 37.2654 35.1025 38.0589 34.3089C38.8524 33.5154 39.3281 32.4286 39.5817 30.5422C39.8408 28.6153 39.8438 26.0753 39.8438 22.5C39.8438 18.9247 39.8408 16.3847 39.5817 14.4578C39.3281 12.5714 38.8524 11.4846 38.0589 10.6911C37.2654 9.89755 36.1786 9.42192 34.2922 9.1683C32.3653 8.90924 29.8253 8.90625 26.25 8.90625H18.75C15.1747 8.90625 12.6347 8.90924 10.7078 9.1683Z" fill="#F39C34"/>
</svg>
