<svg width="168" height="48" viewBox="0 0 168 48" fill="none" xmlns="http://www.w3.org/2000/svg">
<path d="M18.144 12.536V16.92H12.192V35H6.72V16.92H0.768V12.536H18.144ZM38.5223 17.144V35H33.0503V32.568C32.4956 33.3573 31.7383 33.9973 30.7783 34.488C29.8396 34.9573 28.7943 35.192 27.6423 35.192C26.2769 35.192 25.0716 34.8933 24.0263 34.296C22.9809 33.6773 22.1703 32.792 21.5943 31.64C21.0183 30.488 20.7303 29.1333 20.7303 27.576V17.144H26.1703V26.84C26.1703 28.0347 26.4796 28.9627 27.0983 29.624C27.7169 30.2853 28.5489 30.616 29.5943 30.616C30.6609 30.616 31.5036 30.2853 32.1223 29.624C32.7409 28.9627 33.0503 28.0347 33.0503 26.84V17.144H38.5223ZM52.4048 30.36V35H49.6208C47.6368 35 46.0901 34.52 44.9808 33.56C43.8714 32.5787 43.3168 30.9893 43.3168 28.792V21.688H41.1408V17.144H43.3168V12.792H48.7888V17.144H52.3728V21.688H48.7888V28.856C48.7888 29.3893 48.9168 29.7733 49.1728 30.008C49.4288 30.2427 49.8554 30.36 50.4528 30.36H52.4048ZM63.5808 35.256C61.8314 35.256 60.2528 34.8827 58.8448 34.136C57.4581 33.3893 56.3594 32.3227 55.5488 30.936C54.7594 29.5493 54.3648 27.928 54.3648 26.072C54.3648 24.2373 54.7701 22.6267 55.5807 21.24C56.3914 19.832 57.5008 18.7547 58.9088 18.008C60.3168 17.2613 61.8954 16.888 63.6448 16.888C65.3941 16.888 66.9728 17.2613 68.3808 18.008C69.7888 18.7547 70.8981 19.832 71.7088 21.24C72.5194 22.6267 72.9248 24.2373 72.9248 26.072C72.9248 27.9067 72.5088 29.528 71.6768 30.936C70.8661 32.3227 69.7461 33.3893 68.3168 34.136C66.9088 34.8827 65.3301 35.256 63.5808 35.256ZM63.5808 30.52C64.6261 30.52 65.5114 30.136 66.2368 29.368C66.9834 28.6 67.3568 27.5013 67.3568 26.072C67.3568 24.6427 66.9941 23.544 66.2688 22.776C65.5648 22.008 64.6901 21.624 63.6448 21.624C62.5781 21.624 61.6928 22.008 60.9888 22.776C60.2848 23.5227 59.9328 24.6213 59.9328 26.072C59.9328 27.5013 60.2741 28.6 60.9568 29.368C61.6608 30.136 62.5354 30.52 63.5808 30.52ZM81.2998 20.12C81.9398 19.1387 82.7398 18.3707 83.6998 17.816C84.6598 17.24 85.7264 16.952 86.8998 16.952V22.744H85.3958C84.0304 22.744 83.0064 23.0427 82.3238 23.64C81.6411 24.216 81.2998 25.24 81.2998 26.712V35H75.8278V17.144H81.2998V20.12Z" fill="#2E6F5E"/>
<path d="M99.4673 30.36V35H96.6833C94.6993 35 93.1526 34.52 92.0433 33.56C90.9339 32.5787 90.3793 30.9893 90.3793 28.792V21.688H88.2033V17.144H90.3793V12.792H95.8513V17.144H99.4353V21.688H95.8513V28.856C95.8513 29.3893 95.9793 29.7733 96.2353 30.008C96.4913 30.2427 96.9179 30.36 97.5153 30.36H99.4673ZM110.643 35.256C108.894 35.256 107.315 34.8827 105.907 34.136C104.521 33.3893 103.422 32.3227 102.611 30.936C101.822 29.5493 101.427 27.928 101.427 26.072C101.427 24.2373 101.833 22.6267 102.643 21.24C103.454 19.832 104.563 18.7547 105.971 18.008C107.379 17.2613 108.958 16.888 110.707 16.888C112.457 16.888 114.035 17.2613 115.443 18.008C116.851 18.7547 117.961 19.832 118.771 21.24C119.582 22.6267 119.987 24.2373 119.987 26.072C119.987 27.9067 119.571 29.528 118.739 30.936C117.929 32.3227 116.809 33.3893 115.379 34.136C113.971 34.8827 112.393 35.256 110.643 35.256ZM110.643 30.52C111.689 30.52 112.574 30.136 113.299 29.368C114.046 28.6 114.419 27.5013 114.419 26.072C114.419 24.6427 114.057 23.544 113.331 22.776C112.627 22.008 111.753 21.624 110.707 21.624C109.641 21.624 108.755 22.008 108.051 22.776C107.347 23.5227 106.995 24.6213 106.995 26.072C106.995 27.5013 107.337 28.6 108.019 29.368C108.723 30.136 109.598 30.52 110.643 30.52ZM125.642 15.288C124.682 15.288 123.893 15.0107 123.274 14.456C122.677 13.88 122.378 13.176 122.378 12.344C122.378 11.4907 122.677 10.7867 123.274 10.232C123.893 9.656 124.682 9.368 125.642 9.368C126.581 9.368 127.349 9.656 127.946 10.232C128.565 10.7867 128.874 11.4907 128.874 12.344C128.874 13.176 128.565 13.88 127.946 14.456C127.349 15.0107 126.581 15.288 125.642 15.288ZM128.362 17.144V35H122.89V17.144H128.362ZM139.592 35.256C138.034 35.256 136.648 34.9893 135.432 34.456C134.216 33.9227 133.256 33.1973 132.552 32.28C131.848 31.3413 131.453 30.296 131.368 29.144H136.776C136.84 29.7627 137.128 30.264 137.64 30.648C138.152 31.032 138.781 31.224 139.528 31.224C140.21 31.224 140.733 31.096 141.096 30.84C141.48 30.5627 141.672 30.2107 141.672 29.784C141.672 29.272 141.405 28.8987 140.872 28.664C140.338 28.408 139.474 28.1307 138.28 27.832C137 27.5333 135.933 27.224 135.08 26.904C134.226 26.5627 133.49 26.04 132.872 25.336C132.253 24.6107 131.944 23.64 131.944 22.424C131.944 21.4 132.221 20.472 132.776 19.64C133.352 18.7867 134.184 18.1147 135.272 17.624C136.381 17.1333 137.693 16.888 139.208 16.888C141.448 16.888 143.208 17.4427 144.488 18.552C145.789 19.6613 146.536 21.1333 146.728 22.968H141.672C141.586 22.3493 141.309 21.8587 140.84 21.496C140.392 21.1333 139.794 20.952 139.048 20.952C138.408 20.952 137.917 21.08 137.576 21.336C137.234 21.5707 137.064 21.9013 137.064 22.328C137.064 22.84 137.33 23.224 137.864 23.48C138.418 23.736 139.272 23.992 140.424 24.248C141.746 24.5893 142.824 24.9307 143.656 25.272C144.488 25.592 145.213 26.1253 145.832 26.872C146.472 27.5973 146.802 28.5787 146.824 29.816C146.824 30.8613 146.525 31.8 145.928 32.632C145.352 33.4427 144.509 34.0827 143.4 34.552C142.312 35.0213 141.042 35.256 139.592 35.256ZM167.003 25.784C167.003 26.296 166.972 26.8293 166.908 27.384H154.524C154.609 28.4933 154.961 29.3467 155.58 29.944C156.22 30.52 156.998 30.808 157.916 30.808C159.281 30.808 160.23 30.232 160.764 29.08H166.588C166.289 30.2533 165.745 31.3093 164.956 32.248C164.188 33.1867 163.217 33.9227 162.044 34.456C160.87 34.9893 159.558 35.256 158.108 35.256C156.358 35.256 154.801 34.8827 153.436 34.136C152.07 33.3893 151.004 32.3227 150.236 30.936C149.468 29.5493 149.084 27.928 149.084 26.072C149.084 24.216 149.457 22.5947 150.204 21.208C150.972 19.8213 152.038 18.7547 153.404 18.008C154.769 17.2613 156.337 16.888 158.108 16.888C159.836 16.888 161.372 17.2507 162.716 17.976C164.06 18.7013 165.105 19.736 165.852 21.08C166.62 22.424 167.003 23.992 167.003 25.784ZM161.404 24.344C161.404 23.4053 161.084 22.6587 160.444 22.104C159.804 21.5493 159.004 21.272 158.044 21.272C157.126 21.272 156.348 21.5387 155.708 22.072C155.089 22.6053 154.705 23.3627 154.556 24.344H161.404Z" fill="#F39C34"/>
</svg>
