<svg width="167" height="26" viewBox="0 0 167 26" fill="none" xmlns="http://www.w3.org/2000/svg">
<path d="M17.376 3.168V7.552H11.424V25.632H5.952V7.552H2.26498e-06V3.168H17.376ZM37.7543 7.776V25.632H32.2823V23.2C31.7276 23.9893 30.9703 24.6293 30.0103 25.12C29.0716 25.5893 28.0263 25.824 26.8743 25.824C25.5089 25.824 24.3036 25.5253 23.2583 24.928C22.2129 24.3093 21.4023 23.424 20.8263 22.272C20.2503 21.12 19.9623 19.7653 19.9623 18.208V7.776H25.4023V17.472C25.4023 18.6667 25.7116 19.5947 26.3303 20.256C26.9489 20.9173 27.7809 21.248 28.8263 21.248C29.8929 21.248 30.7356 20.9173 31.3543 20.256C31.9729 19.5947 32.2823 18.6667 32.2823 17.472V7.776H37.7543ZM51.6368 20.992V25.632H48.8528C46.8688 25.632 45.3221 25.152 44.2128 24.192C43.1034 23.2107 42.5488 21.6213 42.5488 19.424V12.32H40.3728V7.776H42.5488V3.424H48.0208V7.776H51.6048V12.32H48.0208V19.488C48.0208 20.0213 48.1488 20.4053 48.4048 20.64C48.6608 20.8747 49.0874 20.992 49.6848 20.992H51.6368ZM62.8128 25.888C61.0634 25.888 59.4848 25.5147 58.0768 24.768C56.6901 24.0213 55.5914 22.9547 54.7808 21.568C53.9914 20.1813 53.5968 18.56 53.5968 16.704C53.5968 14.8693 54.0021 13.2587 54.8128 11.872C55.6234 10.464 56.7328 9.38667 58.1408 8.64C59.5488 7.89333 61.1274 7.52 62.8768 7.52C64.6261 7.52 66.2048 7.89333 67.6128 8.64C69.0208 9.38667 70.1301 10.464 70.9408 11.872C71.7514 13.2587 72.1568 14.8693 72.1568 16.704C72.1568 18.5387 71.7408 20.16 70.9088 21.568C70.0981 22.9547 68.9781 24.0213 67.5488 24.768C66.1408 25.5147 64.5621 25.888 62.8128 25.888ZM62.8128 21.152C63.8581 21.152 64.7434 20.768 65.4688 20C66.2154 19.232 66.5888 18.1333 66.5888 16.704C66.5888 15.2747 66.2261 14.176 65.5008 13.408C64.7968 12.64 63.9221 12.256 62.8768 12.256C61.8101 12.256 60.9248 12.64 60.2208 13.408C59.5168 14.1547 59.1648 15.2533 59.1648 16.704C59.1648 18.1333 59.5061 19.232 60.1888 20C60.8928 20.768 61.7674 21.152 62.8128 21.152ZM80.5318 10.752C81.1718 9.77067 81.9718 9.00267 82.9318 8.448C83.8918 7.872 84.9584 7.584 86.1318 7.584V13.376H84.6278C83.2624 13.376 82.2384 13.6747 81.5558 14.272C80.8731 14.848 80.5318 15.872 80.5318 17.344V25.632H75.0598V7.776H80.5318V10.752Z" fill="#2E6F5E"/>
<path d="M98.6993 20.992V25.632H95.9153C93.9313 25.632 92.3846 25.152 91.2753 24.192C90.1659 23.2107 89.6113 21.6213 89.6113 19.424V12.32H87.4353V7.776H89.6113V3.424H95.0833V7.776H98.6673V12.32H95.0833V19.488C95.0833 20.0213 95.2113 20.4053 95.4673 20.64C95.7233 20.8747 96.1499 20.992 96.7473 20.992H98.6993ZM109.875 25.888C108.126 25.888 106.547 25.5147 105.139 24.768C103.753 24.0213 102.654 22.9547 101.843 21.568C101.054 20.1813 100.659 18.56 100.659 16.704C100.659 14.8693 101.065 13.2587 101.875 11.872C102.686 10.464 103.795 9.38667 105.203 8.64C106.611 7.89333 108.19 7.52 109.939 7.52C111.689 7.52 113.267 7.89333 114.675 8.64C116.083 9.38667 117.193 10.464 118.003 11.872C118.814 13.2587 119.219 14.8693 119.219 16.704C119.219 18.5387 118.803 20.16 117.971 21.568C117.161 22.9547 116.041 24.0213 114.611 24.768C113.203 25.5147 111.625 25.888 109.875 25.888ZM109.875 21.152C110.921 21.152 111.806 20.768 112.531 20C113.278 19.232 113.651 18.1333 113.651 16.704C113.651 15.2747 113.289 14.176 112.563 13.408C111.859 12.64 110.985 12.256 109.939 12.256C108.873 12.256 107.987 12.64 107.283 13.408C106.579 14.1547 106.227 15.2533 106.227 16.704C106.227 18.1333 106.569 19.232 107.251 20C107.955 20.768 108.83 21.152 109.875 21.152ZM124.874 5.92C123.914 5.92 123.125 5.64267 122.506 5.088C121.909 4.512 121.61 3.808 121.61 2.976C121.61 2.12267 121.909 1.41867 122.506 0.864C123.125 0.288 123.914 0 124.874 0C125.813 0 126.581 0.288 127.178 0.864C127.797 1.41867 128.106 2.12267 128.106 2.976C128.106 3.808 127.797 4.512 127.178 5.088C126.581 5.64267 125.813 5.92 124.874 5.92ZM127.594 7.776V25.632H122.122V7.776H127.594ZM138.824 25.888C137.266 25.888 135.88 25.6213 134.664 25.088C133.448 24.5547 132.488 23.8293 131.784 22.912C131.08 21.9733 130.685 20.928 130.6 19.776H136.008C136.072 20.3947 136.36 20.896 136.872 21.28C137.384 21.664 138.013 21.856 138.76 21.856C139.442 21.856 139.965 21.728 140.328 21.472C140.712 21.1947 140.904 20.8427 140.904 20.416C140.904 19.904 140.637 19.5307 140.104 19.296C139.57 19.04 138.706 18.7627 137.512 18.464C136.232 18.1653 135.165 17.856 134.312 17.536C133.458 17.1947 132.722 16.672 132.104 15.968C131.485 15.2427 131.176 14.272 131.176 13.056C131.176 12.032 131.453 11.104 132.008 10.272C132.584 9.41867 133.416 8.74667 134.504 8.256C135.613 7.76533 136.925 7.52 138.44 7.52C140.68 7.52 142.44 8.07467 143.72 9.184C145.021 10.2933 145.768 11.7653 145.96 13.6H140.904C140.818 12.9813 140.541 12.4907 140.072 12.128C139.624 11.7653 139.026 11.584 138.28 11.584C137.64 11.584 137.149 11.712 136.808 11.968C136.466 12.2027 136.296 12.5333 136.296 12.96C136.296 13.472 136.562 13.856 137.096 14.112C137.65 14.368 138.504 14.624 139.656 14.88C140.978 15.2213 142.056 15.5627 142.888 15.904C143.72 16.224 144.445 16.7573 145.064 17.504C145.704 18.2293 146.034 19.2107 146.056 20.448C146.056 21.4933 145.757 22.432 145.16 23.264C144.584 24.0747 143.741 24.7147 142.632 25.184C141.544 25.6533 140.274 25.888 138.824 25.888ZM166.236 16.416C166.236 16.928 166.204 17.4613 166.14 18.016H153.756C153.841 19.1253 154.193 19.9787 154.812 20.576C155.452 21.152 156.23 21.44 157.148 21.44C158.513 21.44 159.462 20.864 159.996 19.712H165.82C165.521 20.8853 164.977 21.9413 164.188 22.88C163.42 23.8187 162.449 24.5547 161.276 25.088C160.102 25.6213 158.79 25.888 157.34 25.888C155.59 25.888 154.033 25.5147 152.668 24.768C151.302 24.0213 150.236 22.9547 149.468 21.568C148.7 20.1813 148.316 18.56 148.316 16.704C148.316 14.848 148.689 13.2267 149.436 11.84C150.204 10.4533 151.27 9.38667 152.636 8.64C154.001 7.89333 155.569 7.52 157.34 7.52C159.068 7.52 160.604 7.88267 161.948 8.608C163.292 9.33333 164.337 10.368 165.084 11.712C165.852 13.056 166.236 14.624 166.236 16.416ZM160.636 14.976C160.636 14.0373 160.316 13.2907 159.676 12.736C159.036 12.1813 158.236 11.904 157.276 11.904C156.358 11.904 155.58 12.1707 154.94 12.704C154.321 13.2373 153.937 13.9947 153.788 14.976H160.636Z" fill="#F39C34"/>
</svg>
