<svg width="45" height="45" viewBox="0 0 45 45" fill="none" xmlns="http://www.w3.org/2000/svg">
<path fill-rule="evenodd" clip-rule="evenodd" d="M17.7457 5.28858C20.7882 3.86214 24.2116 3.86214 27.2542 5.28858L39.8002 11.1704C41.7732 12.0954 42.6563 14.1042 42.6562 15.9375C42.6562 17.7709 41.7732 19.7796 39.8002 20.7047L37.0312 22.0028V31.1727C37.0312 33.5221 35.8533 35.7905 33.7088 36.9781C32.2993 37.7587 30.447 38.6984 28.4978 39.4462C26.5716 40.1852 24.4386 40.7812 22.5 40.7812C20.5614 40.7812 18.4284 40.1852 16.5022 39.4462C14.553 38.6984 12.7007 37.7587 11.2912 36.9781C9.14673 35.7905 7.96875 33.5221 7.96875 31.1727V22.0027L5.19981 20.7046L5.15625 20.6839V26.25C5.15625 27.0266 4.52665 27.6562 3.75 27.6562C2.97335 27.6562 2.34375 27.0266 2.34375 26.25V15.9375C2.34375 14.1041 3.22678 12.0954 5.19982 11.1703L17.7457 5.28858ZM10.7812 23.3213V31.1727C10.7812 32.6033 11.4914 33.874 12.6538 34.5177C13.9975 35.2619 15.7252 36.1357 17.5096 36.8203C19.3169 37.5136 21.0711 37.9688 22.5 37.9688C23.9289 37.9688 25.6831 37.5136 27.4904 36.8203C29.2748 36.1357 31.0025 35.2619 32.3462 34.5177C33.5086 33.874 34.2188 32.6033 34.2188 31.1727V23.3214L27.2543 26.5864C24.2118 28.0129 20.7884 28.0129 17.7458 26.5864L10.7812 23.3213ZM6.39368 18.158C5.63773 17.8036 5.15625 16.9582 5.15625 15.9375C5.15625 14.9167 5.63773 14.0713 6.39369 13.7169L18.9395 7.83511C21.2257 6.7633 23.7741 6.7633 26.0603 7.83511L38.6063 13.717C39.3623 14.0714 39.8438 14.9168 39.8438 15.9375C39.8437 16.9583 39.3623 17.8037 38.6063 18.1581L26.0605 24.0399C23.7743 25.1117 21.2259 25.1117 18.9397 24.0399L6.39368 18.158Z" fill="#F39C34"/>
</svg>
