<?xml version="1.0" encoding="UTF-8"?>
<svg xmlns="http://www.w3.org/2000/svg" viewBox="0 0 158 233" height="80px" width="80px">
  <defs>
    <style>
      .cls-1 {
        fill: #276c62;
      }

      .cls-2 {
        fill: #132430;
      }

      .cls-3 {
        fill: #fff;
      }

      .cls-4 {
        fill: #243a5e;
      }

      .cls-5 {
        fill: #b8d364;
      }

      .cls-6 {
        fill: #ec8d29;
      }

      .cls-7 {
        fill: #89a749;
      }

      .cls-8 {
        fill: #fdfdfd;
      }
    </style>
  </defs>
  <g id="Layer_2" data-name="Layer 2">
    <circle class="cls-3" cx="79" cy="114" r="79"/>
  </g>
  <g id="Tortoise">
    <g>
      <path class="cls-2" d="M108.73,59.86l-11.88,3.27c.3,1.78-.39,4.72.08,6.33.25.84,3.29,4.28,4.06,5.77,6.67,12.89,3.91,26-4.47,37.04-.22.29-.47.34-.34.85,15.14,4.43,27.79,17.85,32.46,32.83,3.37,10.81,3.49,31.11-10.68,33.91-1.48.29-3.27.2-4.64.44-2.57.45-4.25,1.96-7.81,1.96-1.46,0-4.21-.85-5.29-.78-2.01.13-5.61,1.68-8.03,2.1-6.3,1.12-15.58,1.76-21.96,1.47-5.07-.23-10.14-.91-15.24-1.37-8.3-.75-16.91-3.96-17.52-13.51-11.72-2.17-13.73-14.7-9.5-24.37,3.71-8.48,12.38-14.67,20.17-19.17,1.16-.67,2.55-.95,3.74-1.69,1.53-.95,2.89-2.69,4.63-3.51-3-.93-5.96-1.94-8.7-3.5-5.75-3.27-10.66-8.84-12.56-15.25-.69-2.34-.08-2.88-1.79-4.64-.91-.93-2.07-1.93-2.85-2.93-6.27-8.07-2.87-21.07,7.11-24.04,1.27-.38,3.74-.51,4.56-.87s3.95-4.23,5.26-5.25c1.05-.82,4.98-2.79,5.21-3.62.15-.56.02-.87-.53-1.07l-13.31-5c-.69-.37-.98-1.07-.39-1.7l38.49-13.03,35.31,16.94c.85,1.34-.79,1.59-.88,1.95-.21.83-.17,9.76.02,10.79.13.74.8,1.01,1.09,1.62,1.31,2.75,2.11,4.3,2.31,7.53.09,1.47.25,6.22-.7,7.14-.73.71-5.42.66-6.63.53-2.73-.3-1.82-4.52-1.83-6.65s-.51-3.41.49-5.59c.48-1.04.9-2.02,1.37-3.04.18-.39,1.18-1.03,1.18-1.2v-10.69ZM106.7,57.49c-10.29-4.35-19.98-10.08-30.35-14.27-10.46,3.52-20.79,7.51-31.35,10.72-.44.14-.91.17-1.37.16-.1.83,0,.54.47.71,1.4.51,2.92.88,4.33,1.43,1.13.44,3.88,2.07,4.84,1.94.75-.1,2.17-2.32,3.08-3.06,2.88-2.35,6.67-3.32,10.27-3.97,2.08-.38,8.27-1.48,10.02-1.36,1.39.1,5.56,1.22,7.07,1.69,4.36,1.34,8.27,3.67,11.24,7.06.45.51.94,1.79,1.46,1.96.77.26,8.2-1.98,9.77-2.34.51-.12.6.25.51-.66ZM94.49,66.98c.59-6.01-3.07-10.23-8.24-12.62-6.72-3.1-14.99-3.52-22.02-1.2-2.23.74-8.03,4.04-8.4,6.52-.08.53-.05.56.46.46,1.97-.39,3.9-1.39,5.97-1.83,11.51-2.41,22.38.78,31.21,8.16.34.28.44.65,1.02.51ZM78.56,61.22c-11.24-2.48-24.99-.46-32.72,8.82-.28.34-.65.44-.51,1.02l1.47.25c.59-.78,2.86-1.25,3.27-1.61,1.07.01,2.27.4,2.03,1.69-.98-.03-1.99-.05-2.92.31-.36.14-.95.14-.47.71.08.1,1.73.74,2.34,1.22,2.44,1.92,4.53,5.59,5.12,8.62,3.01-1.47,5.79-1.21,8.81,0,.53-5.39,6.34-10.35,11.44-11.45,5.42-1.17,11.92,2.11,14.73,6.8,1.13,1.89,1.5,3.84,2.29,5.85,1.17.13,2.25.26,3.41.49,1.76.36,2.88,1.27,4.06,1.55.44.1.44-.11.68-.36-2.03-11.72-11.48-21.37-23.05-23.92ZM111.11,72.41h-2.04v2.04h2.04v-2.04ZM37.53,96.83c10.22,4.31,19-6.06,15.42-15.94-.96-2.65-3.93-5.86-6.61-6.79-15.56-5.38-22.25,17.06-8.82,22.73ZM74.55,97c4.39,1.7,9.36.67,12.72-2.61s4.5-8.24,2.91-12.66c-1.59-4.43-5.62-7.52-10.31-7.91-5.95-.5-11.37,3.46-12.7,9.28-1.34,5.82,1.81,11.75,7.38,13.9ZM108.05,77.16c-.84,2.29-.08,5.62-.34,8.14h1.35s0-4.07,0-4.07c.95-.36.55.55.68.68.15,1.31.85,1.89,1.7,2.71.29.29.28.87,1.02.68-.39-2.32.54-6.55,0-8.6-.1-.38-.64-.18-.69-.22s.16-.59-.22-.69c-1.61-.41-2.94-.17-3.51,1.36ZM93.47,87c-.5.65-.26,1.89-.49,2.73-4.03,14.85-24.55,14.47-28.24.06-.44-1.73.15-3.95-1.78-4.67-2.05-.76-4.53-.58-6.38.58-.32,8.62-6.95,15.36-15.67,15.2l-3.73-1.02c.95,6.93,6.39,12.96,12.54,15.94,1.12.9,1.38.94,2.71,1.36.02,0,.06.27.34.34.12.03.66.03.68,0,6.1,2.96,13.33,2.72,20,2.72-.25.88-3.62,2.03-4.24,2.03h-7.97l.68,3.05c-.23,0-.47.06-.67.17-.83.51-1.67,2.91-2.04,3.9-1.04,2.75-1.98,5.35.49,7.71l18.86-5.83c.19-.25.28-.55.31-.86,1.37-.55,1.97-2.25,3.04-3.23,1.63-1.49,4.57-2.74,6.79-2.54-.55-1.9-1.27-3.73-1.02-5.77-.11-.13-3.32,2.01-3.05.51s5.09-4.25,6.45-5.42c4.68-4,8.6-9.39,9.94-15.49.36-1.65,1.27-7.93.85-9.22-.31-.93-6.47-2.58-7.6-2.61-.49-.02-.54-.02-.82.36ZM93.72,114.86c-.81.24-2.56,2.19-3.29,2.83,0,.56,4.9,1.96,5.73,2.4,1.19.64,5.45,4.56,6.25,4.49.93-.07,2.92-3.22,3.95-3.84,0-.45-5.9-3.61-6.82-4.02s-5.19-2.05-5.81-1.86ZM114.5,152.8c-2.2-12.45-9.61-26.65-21.81-31.95-.93-.41-1.6-.73-2.59-.26-.48,1.72,1.55,2.49,2.18,3.37.38.53.35,1.26.61,1.61.36.48,3.15,2.1,3.99,2.96,5.19,5.37,10.28,16.64,10.85,24.09.56,7.33.31,18.75-4.18,24.85-.33.44-1.83.92-1.6,2.13h6.61c.38,0,2.37-.96,2.7-1.37,3.26-3.98,4.65-14.79,4.25-19.83-.09-1.07-.54-2.18-.68-3.22-.11-.87-.18-1.49-.34-2.37ZM117.35,130.62c-1.34-1.64-2.63-3.32-4.21-4.79-.75-.71-4.03-3.53-4.74-3.77-1.16-.39-3.84,2.92-3.67,4.37.18,1.55,2.58,3.73,3.47,5.02.79,1.15,3.48,6.01,4.17,6.34.57.28,1.9.48,2.56.35l6.01-2.48c-.78-1.26-1.52-2.8-2.38-3.99-.25-.35-.91-.71-1.2-1.06ZM59.23,122.95c-1.35-.09-2.38,1-3.05,2.03,1.97.03,3.44.5,3.05-2.03ZM57.19,127.36c.03-.1.35-.24.42-.44.71-2.04-.83-1.68-2.22-.86-4.39,2.57-8,10.48-8.71,15.37-.03.2-.09.56.17.51.84-1.13,2.1-1.43,2.54-2.71,1.21-.44,2.48,0,3.48-.07,1.32-.1,2.96-1.07,4.31-1.3-.16-1.68-1.07-3.15-1.03-4.9.03-1.27.65-4.34,1.04-5.6ZM90.42,127.36c-.14-.04-.3-.3-.81-.36-2.44-.27-5.95.82-6.65,3.41,2.51-.77,2.32,2.03,3.05,2.55.88.63,2.23.07,3.13,1.96l2.3,12.11,1.33-2.5c.14-.34.43-.21.7-.21.28,5.04-3.71,9.01-7.69,11.48-1.41.87-4.18,1.34-4.19,3.11-3.88-1.34-10.74-1.79-13.51,1.91-.73.98-.51,2.02-.9,2.83-.2.42-.77.92-1.18,1.71-.19.37-.58.44-.68,1.21-.11.92.22,1.22.34,1.85.08.42-.03.83.16,1.36.88,2.51,2.08,2.74,4.59,3.06.26,1-1.09.76-1.7,1.02,3.98,3.85,11.53,2.54,16.35.92,8.61-2.9,20.14-9.86,20.3-20.08.12-7.83-6.71-25.01-14.94-27.31ZM28.71,159.59c.49,2.6,6.03,4.78,8.48,3.73.07-1.56-1.35-2.73-1.36-4.41.52-.59,2.56,2.97,2.91,3.04,3.08-1.42,3.79-5.19,3.55-8.32-.3-3.9-4.22-6.59-1.2-10.33.79.75.45,1.92.81,2.91.17.47-.12.58.71.47,1.06-3.23,1.63-6.62,2.72-9.84.55-1.62,1.26-3.51,2.03-5.09.12-.25,2.23-2.93.85-2.37-5.43,3.5-11.16,7.13-15.04,12.43-3.77,5.17-5.67,11.32-4.46,17.75ZM83.29,132.79c-.97-.13-1.86.22-2.78.43-6.74,1.58-14.57,4.09-21.21,6.26-1.31.43-4.86,1.38-5.68,2.12-.34.31-.61.49-.5,1.02l1.87-.33-.17,1.01c1.84.12,3.45-.91,5.17-1.45,7.88-2.47,15.91-4.51,23.66-7.38l-.35-1.69ZM58.55,156.53c.25,1.1.45,2.43,1.02,3.39.57,4.9,2.21,9.71,3.31,14.5.54,2.37.82,4.84,1.46,7.19.29.24,5.94-1.16,6.84-1.43.37-.11,3.8-1.2,3.31-1.6-2.07.06-5.04-1.04-6.7-2.29-.76-.57-2.99-2.95-3.47-3.73-3.58-5.8,1.34-15.7,7.98-16.7,3.84-.58,9.32,1.44,11.93-2.04,2.67-1.57,6.14-3.17,5.14-6.93l-2.34-10.72c-.65-1.41-3.51-.23-4.82.1-6.45,1.61-13.85,3.85-20.19,5.92-1.47.48-4.48,1.27-5.5,2.3-.3.3-.43.53-.33.97.77,3.7,1.51,7.4,2.36,11.07ZM120.86,137.96c-1.07.12-3.95,1.34-4.68,2.12-2.64,2.82-.35,6.56.27,9.59.55,2.71.74,5.52,1.27,8.23,2.19,1.48,4.98,3.1,7.72,2.63,3.03-.52,2.82-2.16,2.58-4.8-.53-5.98-2.64-12.86-5.95-17.81-.41-.15-.8,0-1.21.04ZM114.5,139.57h-1.69c.74,2.42,1.35,3.13,1.69,0ZM47.7,143.3c-.96,1.15-3.59,5.31-3.73,6.64-.15,1.46,1.17,3.54.68,5.23.72.12,1.36-.23,2.03-.34,1.54-.24,3.25-.68,4.74,0,.48-.57-2.03-9.05-2.04-10.69,0-1,.63-2.35,1.36-3.05-1.48,0-2.22,1.22-3.05,2.21ZM52.11,145.68c.32,2.39.54,4.81,1.36,7.12-.11,2.76,1.96,9.14,2.63,12.13,1.08,4.81,2.12,9.62,3.22,14.42.12.69,3.38,2.57,3.65,2.29-.56-2.38-.9-4.83-1.44-7.21-1.42-6.26-2.77-12.39-4.07-18.66-.75-3.64-1.78-6.24-1.95-10.09-.01-.22.06-.44-.02-.66-.3-.12-.78.06-1-.02-.45-.16-2.52-1.56-2.71-1.36-.33.79.28,1.64.34,2.03ZM47.02,156.87c-.69.1-1.69-.29-2.21.34-.69,1.8-1.76,4.83-3.22,6.11-.08.07-.49-.01-.69.16-.65.57-.66,3.6-.67,4.59-.09,6.25,1.9,9.53,7.8,11.53,3.15,1.07,6.47,1.76,9.83,1.69.06-.64-.47-.92-.67-1.54-.57-1.78-.93-3.77-1.37-5.59-1.43-5.97-2.67-12-4.07-17.98-1.4.56-2.8.2-4.21.36-.28.03-.47.31-.53.32ZM128.06,161.96c-2.42.48-4.35,1.22-6.86.25-.58-.22-3.35-2.27-3.65-1.94-.11,1.83.14,3.78,0,5.59-.18,2.27-1.75,6.05-1.67,7.78.06,1.31,1.29,2.35,1.73,3.53,7.13-.63,9.64-9.18,10.45-15.21ZM37.87,165.01l-5.42-.34c-.99.96,4.25,2.96,4.92,3.05,1.01.13.3-2.06.5-2.71ZM90.76,181.3c.74-.59,1.46.06,2.12-.07.6-.12,3.23-1.15,3.98-1.46,5.35-2.26,8.32-9.51,7.8-15.09-1.87,1.43-3.34,3.35-5.08,4.92-.83.75-2.89,1.73-3.05,2.71-.33,2,.58,2.36-1.58,3.84-.48.33-1.48.55-1.73.81-.28.3-.33,1.11-.62,1.59s-2.09,2.5-1.83,2.75ZM88.05,175.87c-.28.05-.79.24-1.19.34-.58.14-1.01-.36-.85.68,1.07.4,2.08-.53,2.71-.68.48-.11,1.15.09,1.78-.08s3.02-.96,3.4-1.26c.53-.41.81-1.57.06-1.72-.56-.11-4.83,2.58-5.93,2.72ZM113.82,177.9c.84-.03,1.8.27,2.36-.51-.8-1.48-1.46-3.08-2.21-.52-.1.35-.24.64-.16,1.03ZM85.67,176.89h-1.01v.33h1.01v-.33ZM90.42,177.9c-.45-.44-6.33,1.37-7.38,1.6-3.83.82-7.7,1.42-11.49,2.43-.58.15-.95-.27-.79.72,2.76-.09,5.55.13,8.31,0,1.82-.08,5.83-.24,7.37-.77.84-.28,4.69-3.3,3.99-3.98Z"/>
      <path class="cls-5" d="M93.47,87c1.2-.11.38.28.36.87-.38,9.82-2.89,17.5-10.53,24.07-6.72,5.78-18.65,7.55-27.14,5.77-.84-.17-1.67-.7-2.53-.87-.37-.02-.07.56-.17.68-.02.03-.56.03-.68,0l-.34-.34c-1.33-.41-1.6-.46-2.71-1.36-3.52-2.83-6.41-6.79-8.51-10.58-.13-.24-.48-.29-.52-.38-.23-.5-.96-2.78-1-3.27-.08-.76.73-.74,1.22-.7,8.71.17,15.35-6.58,15.67-15.2,1.85-1.16,4.33-1.35,6.38-.58,1.92.72,1.33,2.94,1.78,4.67,3.7,14.41,24.21,14.79,28.24-.06.23-.85,0-2.08.49-2.73ZM61,97.07c.87.63,1.72-.93,1.64-1.76-.15-1.7-5.89-2.35-4.93.15.86,2.24,1.88,1,3.03,1.01.2,0,.18.54.26.6ZM73.43,105.62c-6.82,4.27-13.91,5.43-21.4,1.98-.34-.16-3.03-2.26-2.64-.42.16.73,4.56,3,5.5,3.32,5.41,1.86,12.51.91,17.33-2.19.69-.45,2.27-2.13,2.84-2.28.78-.21,1.5.8,2.3.64.69-.14.42-.64,0-1.01-.73-.66-4.13-2.65-4.91-2.04.34.7,1.31,1.06.98,2Z"/>
      <path class="cls-7" d="M93.47,87c.29-.38.33-.37.82-.36,1.13.03,7.3,1.68,7.6,2.61.42,1.29-.49,7.57-.85,9.22-1.34,6.11-5.26,11.49-9.94,15.49-1.36,1.17-6.2,3.97-6.45,5.42s2.94-.64,3.05-.51c-.25,2.04.47,3.87,1.02,5.77-2.21-.2-5.15,1.05-6.79,2.54-1.07.98-1.68,2.68-3.04,3.23.16-1.41-1.35-4.01-2.62-4.36-.7-.2-3.64.57-4.67.63-3.29.21-5.83-.45-8.99-1.02-.2-.04-.49-.33-.68-.34l-.68-3.05h7.97c.62,0,3.98-1.15,4.24-2.03-6.67,0-13.9.24-20-2.72.11-.13-.2-.7.17-.68.85.17,1.69.69,2.53.87,8.49,1.78,20.42,0,27.14-5.77,7.64-6.57,10.15-14.26,10.53-24.07.02-.59.84-.98-.36-.87Z"/>
      <path class="cls-5" d="M90.42,127.36l-1.35.34c2.06.99,3.77,3.4,5.02,5.32,4,6.15,7.73,16,4.97,23.17-3.42,8.91-17.67,15.23-26.79,14.26-2.17-.23-4.43-1.72-6.61-2.04-.12-.63-.45-.93-.34-1.85.09-.76.48-.84.68-1.21l.39.31c.14-.45,1.86-1.62,1.91-1.74.11-.27-.25-.65-.1-.95.63-1.17,4.48-2.85,5.78-3.01,2.38-.31,6.39.46,8.39-.03.12-.03,1.55-1.19,1.84-1.33,3.01-1.41,6.3-2.46,8.37-5.47,1.91-2.77,1.6-5.37,1.55-8.6.04-.34-.44-.2-.69-.2-.27,0-.57-.13-.7.21l-1.33,2.5-2.3-12.11c-.9-1.89-2.24-1.33-3.13-1.96-.73-.52-.54-3.31-3.05-2.55.69-2.58,4.21-3.68,6.65-3.41.51.06.67.32.81.36Z"/>
      <path class="cls-5" d="M77.88,61.55c.08.04.31.62.68.83,4.72,2.66,10.7,7.22,12.22,12.49.34,1.16,2.09,3.89,2.61,5.59.24.79-.21,2.5.98,2.71.47.08,2.64-.67,2.5.76-1.16-.24-2.24-.36-3.41-.49-.79-2.01-1.16-3.96-2.29-5.85-2.81-4.7-9.31-7.98-14.73-6.8-5.1,1.1-10.91,6.06-11.44,11.45-3.02-1.21-5.8-1.47-8.81,0-.59-3.04-2.68-6.7-5.12-8.62-.62-.49-2.26-1.12-2.34-1.22-.48-.57.11-.57.47-.71.93-.35,1.94-.34,2.92-.31.24-1.29-.96-1.68-2.03-1.69,4.62-3.98,6.74-5.53,13.15-7.37,2.61-.75,12.58-1.9,14.65-.77Z"/>
      <path class="cls-1" d="M114.84,155.18c.13,1.04.59,2.16.68,3.22.4,5.04-.99,15.85-4.25,19.83-.34.41-2.33,1.37-2.7,1.37h-6.61c-.24-1.21,1.27-1.69,1.6-2.13,4.5-6.1,4.74-17.52,4.18-24.85-.56-7.44-5.66-18.71-10.85-24.09-.84-.87-3.63-2.48-3.99-2.96-.26-.35-.22-1.07-.61-1.61-.63-.88-2.66-1.65-2.18-3.37.99-.48,1.65-.15,2.59.26,12.2,5.3,19.6,19.49,21.81,31.95-.85-.23-.66.76-1.24.96-.83.28-1.97-.28-1.84,1.25s2.6.33,3.41.17Z"/>
      <path class="cls-7" d="M90.42,127.36c8.24,2.3,15.06,19.49,14.94,27.31-.16,10.22-11.69,17.18-20.3,20.08-4.82,1.62-12.36,2.94-16.35-.92.61-.26,1.96-.02,1.7-1.02-2.51-.32-3.71-.54-4.59-3.06-.18-.52-.08-.93-.16-1.36,2.18.32,4.44,1.81,6.61,2.04,9.11.97,23.36-5.35,26.79-14.26,2.76-7.17-.97-17.02-4.97-23.17-1.25-1.92-2.96-4.34-5.02-5.32l1.35-.34Z"/>
      <path class="cls-4" d="M106.7,57.49c.09.92,0,.55-.51.66-1.58.36-9.01,2.6-9.77,2.34-.52-.17-1.01-1.45-1.46-1.96-2.97-3.39-6.88-5.72-11.24-7.06-1.51-.46-5.68-1.59-7.07-1.69-1.75-.12-7.94.98-10.02,1.36-3.6.66-7.39,1.63-10.27,3.97-.9.74-2.32,2.96-3.08,3.06-.96.13-3.71-1.5-4.84-1.94-1.41-.55-2.93-.92-4.33-1.43-.47-.17-.58.12-.47-.71.46.02.92-.02,1.37-.16,10.56-3.22,20.89-7.2,31.35-10.72,10.37,4.2,20.05,9.92,30.35,14.27Z"/>
      <path class="cls-5" d="M74.55,97c-.7-.83-1.48-1.83-2.21-2.77-.81-1.03-1.98-2.19-2.57-3.44-2.6-5.53.81-11.87,5.61-14.96.4-.26.89-.24,1.13-.38,2.96-.24,5.42,1.03,7.46,3.05-.19-2.46-3.03-4.42-5.42-4.07.81-.34,1.59-.21,1.32-.63,4.69.39,8.71,3.48,10.31,7.91,1.59,4.43.45,9.38-2.91,12.66s-8.34,4.31-12.72,2.61ZM75.5,82.59c-.42.61-.46.57-.68,1.36-.73,2.56-.59,8.58,2.9,9.14,6.6,1.06,7.55-9.49,3.32-12.14-2.4-1.5-4.09-.47-5.54,1.64Z"/>
      <path class="cls-4" d="M94.49,66.98c-.58.14-.68-.22-1.02-.51-8.83-7.37-19.7-10.56-31.21-8.16-2.08.43-4,1.44-5.97,1.83-.51.1-.54.07-.46-.46.37-2.48,6.18-5.79,8.4-6.52,7.03-2.32,15.3-1.9,22.02,1.2,5.17,2.38,8.83,6.61,8.24,12.62Z"/>
      <path class="cls-1" d="M120.86,137.96c.41-.05.8-.19,1.21-.04,3.31,4.95,5.42,11.83,5.95,17.81.23,2.63.45,4.28-2.58,4.8-2.74.47-5.53-1.15-7.72-2.63-.53-2.71-.71-5.52-1.27-8.23-.62-3.03-2.91-6.76-.27-9.59.73-.77,3.61-2,4.68-2.12Z"/>
      <path class="cls-5" d="M47.02,156.87c.07,0,.25-.29.53-.32,1.41-.16,2.82.19,4.21-.36,1.4,5.98,2.64,12.01,4.07,17.98.5,2.01-3.18,3-4.59,3.07-2.59.13-4.23-1.47-6.6-1.71-.53-1.08-.41-1.07-.76-2.12-.23-.7-1.02-1.33-1.2-2.19-.16-.78-.23-3.55-.07-4.27.05-.24.51-.24.64-.5,1.21-2.53,2.1-5.17,2.93-7.86l.83-1.7Z"/>
      <path class="cls-5" d="M37.53,96.83c-1.25-3.03,1.68-5.26,2.22-8.12.81-4.29,1.86-7.16,2.79-11.12.18-.75-.13-2.92.99-3.14.87-.17,2.12.38,2.81-.35,2.68.93,5.64,4.14,6.61,6.79,3.58,9.88-5.2,20.25-15.42,15.94ZM47.36,75.46c-.94-2.35-4.49,1.61-4.07,2.04,1.55-.33,2.37-2.01,4.07-2.04ZM46.01,93.1c.99.43.99.6,2.03,0,3.61-2.08,4.5-7.85,2.18-11.17s-5.64-1.44-6.69,1.74-.99,7.93,2.48,9.43Z"/>
      <path class="cls-5" d="M78.89,130.41c-.03.31-.12.61-.31.86l-18.86,5.83c-2.47-2.36-1.53-4.95-.49-7.71.44.66,2.78-.49,2.96-.77.33-.51.4-2.26.43-2.96,3.15.57,5.69,1.23,8.99,1.02,1.03-.07,3.97-.83,4.67-.63,1.27.36,2.77,2.95,2.62,4.36Z"/>
      <path class="cls-5" d="M47.36,131.77c-.78,1.58-1.49,3.47-2.03,5.09-.77-.56-.78-.33-1.31.22-1.3,1.36-4.02,5.02-4.86,6.67-2.41,4.75.04,10.89-4.86,14.48-1.86,1.36-2.87,1.21-4.91.34l-.34,1.02c.13-1.68-.19-3.58.03-5.23.47-3.64,2.36-6.8,4.45-9.8,3.15-4.54,8.08-8.8,12.51-12.18.45-.34.68-.59,1.33-.6Z"/>
      <path class="cls-8" d="M46.34,74.11c-.69.72-1.94.17-2.81.35-1.12.22-.82,2.39-.99,3.14-.93,3.95-1.98,6.83-2.79,11.12-.54,2.86-3.47,5.1-2.22,8.12-13.44-5.67-6.74-28.1,8.82-22.73ZM35.83,89.37c-.04.21-.26,1.1-.34,1.36-.03.11.04.25,0,.34-.04.12-.51.25-.57.43-.26.74-.64,2.11.13,2.64,1.74,1.21,1.47-1.46,1.8-2.39,1.34-3.75,1.85-6.11,2.81-9.91.58-2.31,1.39-4.51,2.27-6.71-2.17-.15-2.4-.18-3.21,1.7-1.17,2.73-1.14,5.49-1.94,7.89-.17.51-.81.76-.9,1.15-.09.36.15,2.4-.04,3.5Z"/>
      <path class="cls-7" d="M96.87,83.94c.14-1.43-2.03-.68-2.5-.76-1.19-.21-.74-1.92-.98-2.71-.52-1.7-2.27-4.43-2.61-5.59-1.52-5.27-7.5-9.83-12.22-12.49-.37-.21-.6-.79-.68-.83l.68-.34c11.57,2.55,21.02,12.2,23.05,23.92-.24.24-.24.46-.68.36-1.18-.28-2.3-1.19-4.06-1.55Z"/>
      <path class="cls-1" d="M117.35,130.62c.29.35.95.72,1.2,1.06.86,1.19,1.6,2.73,2.38,3.99l-6.01,2.48c-.65.12-1.98-.08-2.56-.35-.69-.33-3.38-5.19-4.17-6.34-.89-1.3-3.28-3.48-3.47-5.02-.17-1.45,2.51-4.76,3.67-4.37.71.24,3.99,3.06,4.74,3.77,1.57,1.47,2.86,3.15,4.21,4.79Z"/>
      <path class="cls-1" d="M128.06,161.96c-.81,6.03-3.33,14.58-10.45,15.21-.44-1.18-1.67-2.22-1.73-3.53-.08-1.73,1.49-5.51,1.67-7.78.14-1.81-.1-3.76,0-5.59.3-.33,3.07,1.72,3.65,1.94,2.51.97,4.44.23,6.86-.25Z"/>
      <path class="cls-7" d="M45.33,136.86c-1.08,3.21-1.66,6.61-2.72,9.84-.83.1-.54,0-.71-.47-.37-.99-.02-2.16-.81-2.91-3.02,3.74.9,6.42,1.2,10.33.24,3.13-.47,6.9-3.55,8.32-.35-.08-2.38-3.63-2.91-3.04,0,1.68,1.43,2.84,1.36,4.41-2.45,1.05-7.99-1.13-8.48-3.73h.34l.34-1.02c2.04.87,3.05,1.02,4.91-.34,4.89-3.59,2.44-9.72,4.86-14.48.84-1.66,3.56-5.32,4.86-6.67.53-.55.54-.77,1.31-.22Z"/>
      <path class="cls-7" d="M90.76,181.3c-.26-.25,1.55-2.28,1.83-2.75s.34-1.28.62-1.59c.25-.26,1.25-.48,1.73-.81,2.17-1.49,1.25-1.84,1.58-3.84.16-.99,2.23-1.96,3.05-2.71,1.74-1.57,3.2-3.49,5.08-4.92.52,5.58-2.45,12.83-7.8,15.09-.74.31-3.38,1.35-3.98,1.46-.65.13-1.37-.52-2.12.07Z"/>
      <path class="cls-8" d="M93.47,144.32c.24,0,.72-.14.69.2.05,3.23.35,5.82-1.55,8.6-2.07,3.01-5.35,4.06-8.37,5.47-.29.14-1.72,1.3-1.84,1.33-2,.49-6.01-.28-8.39.03-1.31.17-5.16,1.84-5.78,3.01-.16.3.21.67.1.95-.05.12-1.77,1.3-1.91,1.74l-.39-.31c.41-.79.98-1.29,1.18-1.71.39-.81.17-1.85.9-2.83,2.77-3.7,9.63-3.25,13.51-1.91,0-1.77,2.77-2.24,4.19-3.11,3.98-2.46,7.97-6.43,7.69-11.48Z"/>
      <path class="cls-1" d="M93.72,114.86c.63-.18,4.9,1.46,5.81,1.86s6.82,3.58,6.82,4.02c-1.03.63-3.02,3.77-3.95,3.84-.8.06-5.06-3.85-6.25-4.49-.83-.45-5.72-1.85-5.73-2.4.73-.64,2.48-2.6,3.29-2.83Z"/>
      <path class="cls-8" d="M78.56,61.22l-.68.34c-2.08-1.12-12.05.03-14.65.77-6.41,1.84-8.53,3.39-13.15,7.37-.41.36-2.68.83-3.27,1.61l-1.47-.25c-.14-.58.22-.68.51-1.02,7.73-9.28,21.48-11.3,32.72-8.82Z"/>
      <path class="cls-5" d="M57.19,127.36c-.4,1.25-1.02,4.33-1.04,5.6-.04,1.75.88,3.22,1.03,4.9-1.35.23-2.99,1.2-4.31,1.3-1,.07-2.27-.36-3.48.07.94-2.7,1.12-4.96,2.77-7.58.95-1.5,3.13-4.23,5.03-4.29Z"/>
      <path class="cls-8" d="M28.71,159.59c-1.2-6.43.69-12.58,4.46-17.75,3.87-5.31,9.6-8.93,15.04-12.43,1.38-.56-.73,2.12-.85,2.37-.65,0-.88.26-1.33.6-4.43,3.39-9.36,7.65-12.51,12.18-2.08,3-3.97,6.16-4.45,9.8-.22,1.65.1,3.55-.03,5.23h-.34Z"/>
      <path class="cls-8" d="M47.02,156.87l-.83,1.7c-.83,2.69-1.72,5.33-2.93,7.86-.13.26-.58.27-.64.5-.16.72-.09,3.49.07,4.27.18.86.96,1.49,1.2,2.19.35,1.06.23,1.05.76,2.12.31.62.45,1.33,1.03,1.86l2.36,2.21c-5.9-2.01-7.89-5.28-7.8-11.53.56-.34.24-1.22.42-1.78.28-.89,1.74-1.85.93-2.97,1.46-1.28,2.52-4.31,3.22-6.11.52-.62,1.52-.24,2.21-.34Z"/>
      <path class="cls-8" d="M79.88,73.81c.27.42-.51.29-1.32.63-.89.38-1.22.57-2.03,1.02-.25.14-.73.12-1.13.38-4.81,3.09-8.21,9.43-5.61,14.96.58,1.24,1.75,2.4,2.57,3.44.74.93,1.52,1.93,2.21,2.77-5.57-2.15-8.72-8.08-7.38-13.9,1.34-5.82,6.75-9.78,12.7-9.28Z"/>
      <path class="cls-7" d="M55.84,174.17c.43,1.82.8,3.81,1.37,5.59.2.62.72.9.67,1.54-3.36.06-6.68-.62-9.83-1.69l-2.36-2.21c-.58-.53-.72-1.24-1.03-1.86,2.37.24,4.01,1.84,6.6,1.71,1.41-.07,5.09-1.05,4.59-3.07Z"/>
      <path class="cls-7" d="M90.42,177.9c.7.68-3.14,3.7-3.99,3.98-1.55.52-5.55.68-7.37.77-2.76.13-5.55-.09-8.31,0-.16-.98.21-.56.79-.72,3.79-1.01,7.66-1.61,11.49-2.43,1.05-.23,6.93-2.04,7.38-1.6Z"/>
      <path class="cls-5" d="M47.7,143.3c.83-.99,1.57-2.21,3.05-2.21-.72.7-1.36,2.05-1.36,3.05,0,1.64,2.52,10.12,2.04,10.69-1.49-.68-3.2-.24-4.74,0,.09-1.37-.15-2.87.03-4.21.29-2.27,2.06-5.08.99-7.32Z"/>
      <path class="cls-8" d="M49.4,139.23c-.45,1.28-1.7,1.58-2.54,2.71-.26.05-.2-.3-.17-.51.71-4.89,4.32-12.81,8.71-15.37,1.4-.82,2.93-1.18,2.22.86-.07.2-.39.34-.42.44-1.9.07-4.08,2.79-5.03,4.29-1.65,2.61-1.83,4.88-2.77,7.58Z"/>
      <path class="cls-6" d="M111.78,76.48s.59-.16.69.22c.53,2.05-.4,6.28,0,8.6-.74.19-.72-.39-1.02-.68v-4.07s-.34,2.03-.34,2.03c-.82.18-.53-.19-.94-.64-.08-.09-.36.03-.42-.04-.13-.13.28-1.04-.68-.68v4.07s-1.36,0-1.36,0c.26-2.52-.51-5.85.34-8.14l.34,2.03c-.4-2.64,1.05-2.97,3.39-2.71Z"/>
      <path class="cls-8" d="M40.92,100.9c-.49-.04-1.3-.06-1.22.7.05.48.78,2.77,1,3.27.04.1.39.15.52.38,2.11,3.79,4.99,7.75,8.51,10.58-6.16-2.99-11.59-9.01-12.54-15.94l3.73,1.02Z"/>
      <path class="cls-8" d="M46.68,154.84c-.67.11-1.31.46-2.03.34.49-1.69-.83-3.77-.68-5.23.14-1.33,2.77-5.49,3.73-6.64,1.06,2.23-.7,5.05-.99,7.32-.17,1.35.07,2.85-.03,4.21Z"/>
      <path class="cls-7" d="M37.87,165.01c-.2.65.51,2.84-.5,2.71-.67-.08-5.91-2.09-4.92-3.05l5.42.34Z"/>
      <path class="cls-8" d="M61.94,125.33c.19,0,.48.3.68.34-.03.7-.1,2.46-.43,2.96-.18.28-2.53,1.43-2.96.77.37-.99,1.21-3.4,2.04-3.9.2-.11.44-.18.67-.17Z"/>
      <path class="cls-7" d="M88.05,175.87c1.1-.13,5.37-2.82,5.93-2.72.74.14.47,1.31-.06,1.72-.39.3-2.77,1.09-3.4,1.26s-1.31-.03-1.78.08c.03-.33-.44-.38-.68-.34Z"/>
      <path class="cls-1" d="M114.5,152.8c.16.89.23,1.5.34,2.37-.82.16-3.28,1.33-3.41-.17s1.01-.97,1.84-1.25c.57-.19.39-1.18,1.24-.96Z"/>
      <path class="cls-7" d="M59.23,122.95c.39,2.53-1.08,2.07-3.05,2.03.67-1.03,1.7-2.13,3.05-2.03Z"/>
      <rect class="cls-6" x="109.07" y="72.41" width="2.04" height="2.04"/>
      <path class="cls-1" d="M113.82,177.9c-.08-.39.06-.68.16-1.03.75-2.55,1.41-.95,2.21.52-.56.78-1.52.48-2.36.51Z"/>
      <path class="cls-5" d="M108.05,77.16c.57-1.54,1.9-1.78,3.51-1.36.38.1.18.64.22.69-2.34-.26-3.79.07-3.39,2.71l-.34-2.03Z"/>
      <path class="cls-5" d="M41.6,163.32c.8,1.12-.66,2.08-.93,2.97-.18.56.14,1.45-.42,1.78.01-.99.03-4.02.67-4.59.2-.17.61-.09.69-.16Z"/>
      <path class="cls-7" d="M111.45,84.62c-.84-.82-1.55-1.41-1.7-2.71.06.06.34-.06.42.04.41.45.12.82.94.64l.34-2.03v4.07Z"/>
      <path class="cls-1" d="M114.5,139.57c-.34,3.13-.95,2.42-1.69,0h1.69Z"/>
      <path class="cls-7" d="M88.73,176.21c-.63.14-1.64,1.08-2.71.68-.17-1.03.27-.54.85-.68.4-.09.91-.29,1.19-.34.23-.04.71.01.68.34Z"/>
      <rect class="cls-2" x="84.66" y="176.89" width="1.01" height=".33"/>
      <path class="cls-7" d="M52.79,117.52c-.28-.07-.32-.33-.34-.34l.34.34Z"/>
      <path class="cls-2" d="M73.43,105.62c.33-.93-.64-1.3-.98-2,.78-.62,4.18,1.37,4.91,2.04.42.38.69.87,0,1.01-.8.17-1.52-.85-2.3-.64-.57.15-2.14,1.83-2.84,2.28-4.82,3.09-11.93,4.05-17.33,2.19-.94-.32-5.34-2.59-5.5-3.32-.39-1.84,2.3.26,2.64.42,7.49,3.45,14.58,2.3,21.4-1.98Z"/>
      <path class="cls-2" d="M61,97.07c-.08-.06-.06-.6-.26-.6-1.15-.01-2.17,1.22-3.03-1.01-.96-2.5,4.78-1.85,4.93-.15.07.83-.77,2.39-1.64,1.76Z"/>
      <path class="cls-2" d="M74.83,83.94h1.02c-.09.5.06,1.16,0,1.7,2.42.5,3.5-1.33,2.05-3.24-.81-.51-1.36.24-1.71.87h-.68s0-.68,0-.68c1.45-2.11,3.14-3.14,5.54-1.64,4.23,2.65,3.28,13.2-3.32,12.14-3.48-.56-3.62-6.58-2.9-9.14Z"/>
      <path class="cls-1" d="M78.56,74.44c2.4-.35,5.24,1.62,5.42,4.07-2.03-2.02-4.5-3.29-7.46-3.05.81-.45,1.14-.64,2.03-1.02Z"/>
      <path class="cls-2" d="M75.5,82.59v.68s.68,0,.68,0c-.06.11-.33.64-.34.68h-1.02c.22-.79.26-.75.68-1.36Z"/>
      <path class="cls-2" d="M48.04,93.1h-2.03c-3.46-1.5-3.52-6.28-2.48-9.43s4.4-5.03,6.69-1.74,1.43,9.09-2.18,11.17ZM45.54,82.27c-1.33,1.14-2,3.13.28,3.39,1.96-.18,1.39-3.91-.28-3.39Z"/>
      <path class="cls-1" d="M47.36,75.46c-1.69.03-2.52,1.7-4.07,2.04-.42-.43,3.12-4.38,4.07-2.04Z"/>
      <path class="cls-7" d="M48.04,93.1c-1.04.6-1.05.43-2.03,0h2.03Z"/>
      <path class="cls-1" d="M35.83,89.37c.19-1.1-.04-3.14.04-3.5.1-.39.73-.65.9-1.15.8-2.4.77-5.16,1.94-7.89.81-1.89,1.05-1.85,3.21-1.7-.89,2.2-1.69,4.4-2.27,6.71-.96,3.8-1.47,6.16-2.81,9.91l-1.01.34-.34-1.02c.04-.09-.03-.23,0-.34l.28-.23.06-1.12Z"/>
      <path class="cls-2" d="M35.49,91.07l.34,1.02,1.01-.34c-.33.93-.07,3.6-1.8,2.39-.76-.53-.38-1.9-.13-2.64.06-.18.53-.31.57-.43Z"/>
      <path class="cls-2" d="M35.49,90.73c.07-.26.3-1.14.34-1.36l-.06,1.12-.28.23Z"/>
      <g>
        <path class="cls-6" d="M87.03,136.18l2.34,10.72c1,3.76-2.47,5.37-5.14,6.93-2.62,3.49-8.09,1.46-11.93,2.04-6.64,1-11.56,10.89-7.98,16.7.48.77,2.71,3.15,3.47,3.73,1.66,1.25,4.62,2.35,6.7,2.29.48.39-2.95,1.49-3.31,1.6-.9.27-6.55,1.67-6.84,1.43-.64-2.35-.92-4.82-1.46-7.19-1.1-4.79-2.74-9.6-3.31-14.5-.19-1.64.29-3.56-.68-5.09.05-2.71-1.02-4.84-1.02-6.95,0-3.05,2.55-3.32,5.01-4.16,3.3-1.13,7.22-2.23,10.86-3.38,3.69-1.16,8.02-2.34,12.03-3.5.29-.08.32-1.04,1.26-.66Z"/>
        <path class="cls-6" d="M53.46,152.8s.38-.03.36-.83c-.05-2.12-1.42-4.11-1.03-6.29,1.39-.51,1.71,1.77,2.71,0,.18,3.85,1.2,6.44,1.95,10.09,1.3,6.27,2.64,12.4,4.07,18.66.54,2.38.88,4.83,1.44,7.21-.26.28-3.52-1.6-3.65-2.29-1.09-4.8-2.14-9.61-3.22-14.42-.67-2.98-2.73-9.36-2.63-12.13Z"/>
        <path class="cls-8" d="M83.29,132.79l.35,1.69c-7.75,2.87-15.77,4.91-23.66,7.38-1.71.54-3.32,1.56-5.17,1.45l.17-1.01-1.87.33c-.11-.53.16-.71.5-1.02.82-.74,4.37-1.7,5.68-2.12,6.64-2.16,14.47-4.68,21.21-6.26.92-.21,1.81-.56,2.78-.43ZM60.24,140.59l-1.69.34v.33s1.69-.34,1.69-.34v-.33ZM58.21,141.27c-1.13.06-2.26,0-2.71,1.19l2.71-1.19Z"/>
        <path class="cls-8" d="M87.03,136.18c-.94-.38-.97.58-1.26.66-4.01,1.16-8.34,2.34-12.03,3.5-3.64,1.15-7.56,2.25-10.86,3.38-2.46.84-5.01,1.1-5.01,4.16,0,2.11,1.07,4.24,1.02,6.95,0,.49.07.98-.06,1.46l-.28.23c-.85-3.67-1.59-7.38-2.36-11.07-.1-.44.03-.66.33-.97,1.02-1.03,4.03-1.82,5.5-2.3,6.34-2.07,13.74-4.31,20.19-5.92,1.32-.33,4.18-1.5,4.82-.1Z"/>
        <path class="cls-6" d="M54.48,145c.22.08.7-.1,1,.02.08.21.01.44.02.66-1,1.77-1.32-.51-2.71,0-.38,2.18.98,4.18,1.03,6.29.02.8-.36.79-.36.83-.81-2.31-1.04-4.73-1.36-7.12.47-1.06,1.26-.7,2.22-.45l.15-.23Z"/>
        <path class="cls-6" d="M59.57,159.93c-.57-.97-.76-2.29-1.02-3.39l.28-.23c.14-.48.05-.97.06-1.46.97,1.53.49,3.45.68,5.09Z"/>
        <path class="cls-8" d="M54.48,145l-.15.23c-.97-.25-1.76-.61-2.22.45-.05-.4-.67-1.25-.34-2.03.19-.21,2.26,1.19,2.71,1.36Z"/>
        <path class="cls-8" d="M58.21,141.27l-2.71,1.19c.45-1.19,1.58-1.13,2.71-1.19Z"/>
        <polygon class="cls-8" points="60.24 140.59 60.24 140.93 58.55 141.27 58.55 140.93 60.24 140.59"/>
      </g>
      <path class="cls-8" d="M76.18,83.26c.34-.63.9-1.37,1.71-.87,1.46,1.92.37,3.74-2.05,3.24.06-.54-.09-1.2,0-1.7,0-.04.28-.57.34-.68Z"/>
      <path class="cls-5" d="M54.94,69.73c1.68-.52,2.24,3.21.28,3.39-2.28-.26-1.62-2.25-.28-3.39Z"/>
    </g>
  </g>
</svg>